<svg xmlns="http://www.w3.org/2000/svg" xmlns:xlink="http://www.w3.org/1999/xlink" viewBox="0 0 435.58 475.63"><defs><style>.cls-1{fill:url(#linear-gradient);}.cls-2{fill:none;stroke:#121212;stroke-miterlimit:10;stroke-width:7px;}</style><linearGradient id="linear-gradient" y1="238.18" x2="435.58" y2="238.18" gradientUnits="userSpaceOnUse"><stop offset="0" stop-color="#a7abb0"/><stop offset="0.32" stop-color="#a7abb0"/><stop offset="0.32" stop-color="#a7abb0"/><stop offset="0.99" stop-color="#fff"/></linearGradient></defs><g id="Layer_2" data-name="Layer 2"><g id="Layer_1-2" data-name="Layer 1"><path class="cls-1" d="M362.69,339.9V390a27.7,27.7,0,0,1-13.85,24l-83.21,48a96.48,96.48,0,0,1-96.18-.3L48.34,391.81A96.69,96.69,0,0,1,0,308.08V168.24A96.72,96.72,0,0,1,48.34,84.5L169.45,14.58a96.7,96.7,0,0,1,96.69,0L387.24,84.5a96.7,96.7,0,0,1,48.34,83.74v88.91L373.36,222a20.88,20.88,0,0,1-10.61-18.14l-.06-21.24a48.82,48.82,0,0,0-24.42-42.18L241.82,84.73a48.66,48.66,0,0,0-48.63,0L96.64,140.48A48.63,48.63,0,0,0,72.32,182.6V294.09a48.64,48.64,0,0,0,24.32,42.12L193.19,392a48.62,48.62,0,0,0,48.63,0l2.5-1.46,38.22-22.07a3.81,3.81,0,0,0,0-6.61L206,317.59l-1.56-.91-49.11-28.36A25,25,0,0,1,142.8,266.7V210a25,25,0,0,1,12.48-21.62L204.39,160a24.94,24.94,0,0,1,12.77-3.34V232a13.44,13.44,0,0,0,6.64,11.6l6.46,3.8,52.35,30.22,66.23,38.24A27.72,27.72,0,0,1,362.69,339.9Z"/><line class="cls-2" x1="217.16" y1="475.63" x2="217.16"/></g></g></svg>