<svg xmlns="http://www.w3.org/2000/svg" xmlns:xlink="http://www.w3.org/1999/xlink" viewBox="0 0 435.58 473.09"><defs><style>.cls-1{fill:url(#linear-gradient);}.cls-2{fill:none;stroke:#fff;stroke-miterlimit:10;stroke-width:7px;}</style><linearGradient id="linear-gradient" y1="236.55" x2="435.58" y2="236.55" gradientUnits="userSpaceOnUse"><stop offset="0" stop-color="#a7abb0"/><stop offset="1"/></linearGradient></defs><g id="Layer_2" data-name="Layer 2"><g id="Layer_1-2" data-name="Layer 1"><path class="cls-1" d="M362.69,338.27v50.09a27.7,27.7,0,0,1-13.85,24l-83.21,48a96.46,96.46,0,0,1-96.18-.29L48.34,390.18A96.69,96.69,0,0,1,0,306.45V166.61A96.71,96.71,0,0,1,48.34,82.87L169.45,13a96.7,96.7,0,0,1,96.69,0l121.1,69.92a96.69,96.69,0,0,1,48.34,83.74v88.91l-62.22-35.17a20.88,20.88,0,0,1-10.61-18.14L362.69,181a48.82,48.82,0,0,0-24.42-42.18L241.82,83.1a48.66,48.66,0,0,0-48.63,0L96.64,138.85A48.63,48.63,0,0,0,72.32,181V292.46a48.62,48.62,0,0,0,24.32,42.11l96.55,55.75a48.62,48.62,0,0,0,48.63,0l2.5-1.46,38.22-22.07a3.81,3.81,0,0,0,0-6.61L206,316l-1.56-.92-49.11-28.35a25,25,0,0,1-12.48-21.62V208.36a25,25,0,0,1,12.48-21.62l49.11-28.36A24.94,24.94,0,0,1,217.16,155v75.37A13.44,13.44,0,0,0,223.8,242l6.46,3.8L282.61,276l66.23,38.24A27.72,27.72,0,0,1,362.69,338.27Z"/><line class="cls-2" x1="217.16" y1="473" x2="217.16" y2="0.06"/></g></g></svg>